<?xml version="1.0" standalone="no"?>
<!DOCTYPE svg PUBLIC "-//W3C//DTD SVG 20010904//EN"
 "http://www.w3.org/TR/2001/REC-SVG-20010904/DTD/svg10.dtd">
<svg version="1.0" xmlns="http://www.w3.org/2000/svg"
 width="1000.000000pt" height="1000.000000pt" viewBox="0 0 1000.000000 1000.000000"
 preserveAspectRatio="xMidYMid meet">
<metadata>
Created by potrace 1.14, written by Peter Selinger 2001-2017
</metadata>
<g transform="translate(0.000000,1000.000000) scale(0.100000,-0.100000)"
fill="#000000" stroke="none">
<path d="M5120 9622 c0 -5 -20 -10 -45 -10 -48 -2 -104 -21 -172 -59 -50 -27
-53 -28 -53 -7 0 13 -6 11 -25 -10 -24 -26 -42 -36 -30 -16 7 12 -18 14 -29 3
-4 -5 -13 -8 -19 -8 -7 0 -16 -10 -22 -23 -8 -17 -16 -21 -32 -17 -18 4 -23 1
-23 -15 0 -22 -10 -26 -26 -10 -16 16 -39 3 -50 -28 l-10 -27 -18 38 c-17 34
-30 42 -64 38 -8 -1 -20 4 -29 11 -26 21 -82 37 -86 24 -3 -8 -7 -8 -18 0 -19
15 -110 36 -157 36 -20 0 -40 5 -43 10 -4 6 -13 7 -20 2 -7 -4 -36 -9 -64 -11
-143 -10 -195 -19 -207 -36 -4 -7 -11 -7 -21 2 -12 10 -20 10 -39 -1 -13 -7
-25 -16 -28 -19 -16 -19 -148 -71 -161 -64 -4 3 -12 -2 -19 -10 -7 -8 -16 -12
-21 -9 -5 3 -9 1 -9 -5 0 -5 -22 -16 -49 -24 -40 -12 -183 -92 -319 -179 -15
-10 -43 -26 -62 -37 -19 -10 -56 -37 -81 -59 -25 -22 -74 -57 -110 -78 -86
-50 -176 -120 -197 -152 -19 -29 -114 -122 -141 -136 -25 -14 -81 -69 -81 -80
0 -6 -23 -33 -52 -61 -29 -27 -49 -44 -44 -37 4 6 3 12 -3 12 -9 0 -25 -19
-26 -30 0 -3 -12 -21 -27 -40 -15 -19 -36 -57 -48 -85 -16 -38 -23 -46 -30
-35 -6 8 -10 11 -11 5 -4 -24 -6 -31 -14 -47 -4 -10 -11 -15 -16 -12 -5 3 -9
-4 -9 -14 0 -11 -8 -28 -17 -39 -10 -10 -15 -14 -10 -9 10 14 9 43 -1 31 -5
-6 -17 -30 -27 -55 -11 -25 -30 -58 -42 -75 -43 -55 -133 -198 -133 -211 0 -7
-6 -19 -13 -26 -17 -17 -85 -122 -93 -142 -7 -19 7 -21 25 -3 21 19 4 -29 -28
-83 -35 -57 -56 -104 -72 -157 -17 -61 -47 -106 -64 -99 -9 3 -19 -4 -26 -16
-9 -17 -9 -23 0 -26 6 -2 11 -8 11 -13 0 -6 -4 -8 -9 -5 -12 8 -33 -71 -26
-97 4 -14 3 -18 -3 -9 -11 16 -26 -34 -42 -143 -7 -44 -17 -91 -22 -105 -20
-50 -36 -86 -62 -140 -14 -31 -27 -74 -29 -97 -1 -29 -7 -43 -18 -46 -14 -4
-25 -39 -35 -112 -1 -11 -13 -47 -25 -80 -13 -33 -22 -66 -20 -74 1 -8 -8 -23
-21 -35 -34 -29 -61 -102 -53 -143 5 -27 3 -32 -10 -27 -18 7 -20 -7 -3 -24
12 -12 10 -13 -13 -16 -16 -1 -51 -96 -45 -119 4 -17 -24 -88 -55 -137 -21
-34 -40 -83 -35 -93 2 -7 5 -4 5 6 1 21 17 23 25 2 6 -16 -18 -80 -33 -89 -5
-3 -12 -29 -16 -58 -4 -29 -11 -59 -16 -68 -31 -57 -59 -148 -61 -197 0 -5 -9
-20 -19 -35 -10 -14 -20 -40 -22 -56 -2 -17 -8 -37 -14 -44 -15 -19 -38 -73
-61 -144 -17 -52 -18 -63 -6 -79 19 -26 19 -52 1 -33 -8 7 -17 20 -20 28 -3 8
-5 2 -4 -15 1 -20 -2 -29 -11 -28 -15 4 -16 -13 -1 -23 7 -4 8 -19 5 -38 -4
-17 -10 -71 -13 -121 -3 -49 -10 -96 -16 -103 -8 -10 -7 -16 3 -22 7 -5 11
-18 8 -34 -3 -15 -2 -29 2 -31 5 -3 6 -14 3 -25 -5 -19 -6 -19 -24 3 l-18 22
-1 -33 c0 -19 8 -42 19 -53 15 -16 20 -39 23 -95 2 -41 2 -79 0 -84 -6 -16
-20 -11 -25 8 -3 9 -4 -7 -4 -35 1 -51 9 -67 21 -40 3 6 3 1 0 -13 -3 -14 -1
-38 5 -52 8 -20 7 -29 -5 -38 -7 -7 -15 -31 -15 -54 -2 -50 -16 -111 -19 -81
-1 11 -1 43 0 70 1 28 -1 47 -5 43 -4 -4 -9 -57 -11 -119 -2 -62 -9 -128 -15
-148 -7 -19 -13 -63 -14 -96 -4 -88 -27 -175 -81 -292 -8 -17 -14 -43 -14 -57
0 -15 -11 -38 -25 -52 -16 -15 -30 -46 -36 -77 -6 -29 -20 -67 -30 -85 -10
-18 -19 -42 -19 -54 0 -14 -5 -18 -15 -14 -10 4 -18 -6 -26 -37 -6 -23 -18
-57 -26 -75 -12 -28 -12 -34 1 -48 18 -18 20 -30 6 -39 -5 -3 -10 -16 -10 -28
0 -12 -7 -31 -15 -41 -8 -11 -15 -25 -15 -30 0 -6 5 -4 10 4 18 28 10 -2 -24
-89 -19 -47 -37 -106 -40 -131 -4 -25 -13 -58 -21 -73 -8 -15 -19 -53 -26 -85
-6 -31 -14 -74 -19 -95 -6 -31 -5 -35 6 -26 8 6 14 21 14 33 0 12 7 47 16 77
9 30 17 61 18 69 2 8 8 29 15 45 7 17 15 45 18 63 3 19 14 37 26 44 17 9 19 8
13 -8 -4 -10 -10 -39 -13 -64 -3 -25 -11 -52 -18 -60 -7 -8 -16 -37 -19 -65
-9 -64 -16 -86 -24 -81 -4 2 -8 -17 -9 -42 -1 -26 -2 -59 -3 -74 -1 -27 -19
-41 -21 -15 0 6 -4 3 -9 -8 -4 -11 -6 -105 -3 -210 3 -104 6 -236 6 -292 1
-57 5 -103 9 -103 5 0 8 5 8 11 0 5 5 7 10 4 6 -4 8 -11 5 -16 -4 -5 1 -75 10
-156 11 -102 14 -156 7 -173 l-10 -25 -5 25 c-3 14 -11 86 -17 160 -10 125
-15 150 -23 139 -2 -2 0 -97 3 -210 5 -139 12 -213 21 -230 16 -31 18 -218 3
-314 -22 -133 -23 -145 -14 -145 4 0 11 27 15 60 4 33 10 58 14 55 11 -6 6
-133 -8 -195 -7 -30 -15 -67 -17 -83 -3 -23 -28 -111 -40 -142 -2 -5 -2 10 1
35 3 25 7 70 10 100 l5 55 -15 -50 c-8 -27 -20 -72 -26 -100 -21 -96 -21 -99
-83 -320 -13 -44 -29 -93 -35 -110 -7 -16 -21 -56 -31 -87 l-18 -58 118 0 c96
0 119 3 124 15 3 8 11 14 18 13 10 -2 12 10 10 45 -2 27 1 54 6 60 5 7 13 33
16 59 7 44 45 131 68 153 7 7 8 1 3 -20 -7 -27 -17 -79 -45 -230 -5 -27 -12
-60 -16 -72 -6 -21 -3 -23 33 -23 39 0 39 0 73 75 19 41 38 75 42 75 23 0 -8
-96 -42 -130 -19 -19 -9 -20 1339 -20 l1359 0 -2 83 c-1 65 3 89 17 111 10 15
16 35 13 43 -9 23 36 112 57 113 20 0 22 19 5 56 -10 22 -10 28 0 32 6 2 12
10 12 18 0 8 5 14 10 14 6 0 10 11 10 25 0 14 9 30 20 37 16 10 20 24 20 64 0
34 5 56 15 64 8 7 15 26 15 42 0 18 4 27 11 23 6 -4 10 -19 9 -33 -1 -15 -1
-45 0 -67 2 -39 3 -39 10 -10 4 17 8 66 9 110 1 56 4 75 11 65 9 -13 10 -13
11 0 1 8 0 26 -1 39 -1 15 2 21 10 16 7 -4 14 1 17 14 3 12 11 21 18 21 7 0
22 14 33 31 12 19 22 27 26 20 12 -18 36 -12 36 9 0 11 5 20 10 20 16 0 47 32
54 58 8 23 21 29 30 13 3 -5 15 -7 26 -4 42 11 90 -16 158 -89 9 -10 24 -18
34 -18 9 0 20 -4 23 -10 3 -5 17 -10 30 -10 12 0 33 -11 46 -25 13 -13 28 -25
33 -25 5 0 17 -6 25 -13 9 -8 42 -20 74 -27 34 -8 57 -18 57 -27 0 -8 11 -13
29 -13 17 0 33 -5 36 -10 4 -6 11 -7 17 -4 6 4 17 -1 24 -11 7 -10 20 -15 27
-12 21 8 99 -17 90 -28 -4 -6 1 -2 13 8 22 18 54 23 54 8 0 -5 20 -8 45 -7 25
1 48 -1 51 -6 7 -10 84 -11 84 0 0 4 -5 13 -12 20 -9 9 -9 12 0 12 7 0 12 -4
12 -10 0 -5 9 -10 19 -10 11 0 23 -5 26 -11 4 -6 13 -8 21 -5 8 3 14 1 14 -4
0 -6 15 -10 33 -11 47 -1 64 -11 62 -38 -2 -22 0 -23 46 -18 32 4 49 2 53 -6
3 -9 7 -9 14 1 12 17 23 17 33 1 6 -10 11 -10 21 -1 15 12 58 13 58 1 0 -4 14
-1 30 8 17 8 38 12 46 9 26 -10 66 5 59 21 -4 12 0 14 15 10 11 -3 23 -1 26 5
3 5 13 7 22 3 8 -3 19 0 23 7 10 16 173 68 177 56 2 -5 10 -3 18 3 10 8 22 9
37 2 28 -12 57 -6 57 13 0 8 10 14 23 14 12 0 33 7 45 16 12 8 22 10 22 5 0
-6 9 -11 20 -11 11 0 19 5 18 12 -4 15 107 19 136 5 12 -6 21 -5 25 1 6 10 26
15 48 13 20 -2 63 -54 71 -86 5 -19 15 -31 29 -33 12 -2 29 -12 39 -23 9 -10
26 -19 37 -19 13 0 17 -5 13 -16 -3 -8 1 -22 9 -30 8 -9 15 -25 15 -36 0 -18
2 -19 17 -7 15 13 16 10 10 -28 -8 -46 4 -63 29 -42 21 17 29 4 30 -54 3 -100
17 -217 27 -217 6 0 6 -22 2 -57 -5 -32 -9 -84 -10 -115 l-2 -58 1252 0 1252
0 13 48 c6 26 16 56 20 67 7 17 9 17 9 3 1 -10 6 -18 12 -18 6 0 8 8 5 18 -8
24 8 77 23 77 9 0 14 20 15 65 1 44 9 80 24 109 24 48 28 66 12 56 -5 -3 -5 7
1 25 6 16 15 30 20 30 5 0 9 7 9 17 0 9 3 13 7 9 14 -14 10 -52 -8 -82 -25
-41 -24 -52 2 -23 l20 24 -5 -38 c-3 -22 -1 -35 5 -32 18 12 15 -205 -4 -217
-9 -6 -9 -10 0 -16 8 -5 11 -27 8 -65 l-5 -57 91 0 c84 0 89 1 80 18 -7 13 -7
22 0 29 11 11 20 183 9 183 -4 0 -7 43 -6 95 1 52 5 95 10 95 4 0 5 12 2 26
-4 14 -3 23 1 21 13 -8 2 87 -11 96 -7 6 -5 7 6 4 13 -5 17 4 23 46 4 29 8 87
8 129 1 43 6 79 11 80 12 4 72 -165 79 -223 9 -66 18 -99 28 -99 12 0 12 57 0
64 -5 3 -12 35 -16 71 -4 37 -13 72 -22 81 -9 8 -15 26 -15 40 0 13 -4 24 -9
24 -5 0 -9 5 -9 11 0 5 -9 30 -20 55 -19 40 -19 46 -5 60 18 19 19 9 -6 73
-11 30 -19 66 -18 80 2 14 -2 35 -8 47 -16 27 -27 154 -14 154 16 0 22 -18 25
-68 1 -26 6 -47 12 -47 5 0 12 -13 16 -30 4 -16 4 -6 1 24 -4 38 -2 52 6 47 6
-4 11 0 11 9 0 9 4 14 9 10 12 -7 -1 41 -23 83 -9 17 -17 46 -17 64 -1 18 -3
25 -6 16 -2 -10 -9 -18 -14 -18 -6 0 -9 8 -8 18 2 24 -12 81 -22 88 -12 7 -11
-9 1 -41 8 -20 7 -34 -4 -55 -7 -15 -10 -33 -7 -39 10 -15 5 -186 -6 -189 -4
-1 -9 16 -11 38 -2 27 -7 40 -15 37 -7 -2 -11 -15 -10 -28 l3 -24 -15 25 c-8
14 -14 32 -14 40 0 10 3 8 9 -5 8 -18 9 -17 9 7 1 15 -3 30 -9 33 -5 3 -10 0
-10 -7 0 -9 -3 -9 -10 2 -5 8 -10 24 -10 35 0 17 2 17 10 5 9 -13 10 -13 11 0
2 23 -2 45 -10 50 -12 8 -33 123 -29 160 4 35 4 35 15 10 6 -14 18 -51 27 -82
10 -32 22 -58 28 -58 6 0 7 7 3 17 -19 47 -32 103 -25 103 5 0 4 15 -1 32 -12
42 -12 43 6 28 11 -9 15 -9 15 -1 0 6 -9 19 -20 28 -11 10 -20 26 -20 36 0 9
-6 20 -14 23 -14 5 -69 124 -64 140 1 5 -6 21 -15 36 -12 18 -17 41 -15 70 l3
43 19 -37 c10 -21 35 -57 55 -80 44 -52 87 -117 94 -144 4 -17 5 -17 6 -1 1
25 -33 89 -69 128 -16 19 -30 39 -30 46 0 7 -4 13 -9 13 -5 0 -18 22 -30 49
-11 28 -26 53 -31 56 -6 3 -10 23 -10 43 0 24 -3 32 -9 24 -6 -10 -10 -4 -15
18 -3 18 -4 36 -1 40 3 4 -2 11 -11 14 -14 5 -16 28 -14 159 4 437 4 417 -4
522 -7 87 7 80 20 -10 7 -43 9 -46 12 -18 2 17 -2 56 -8 85 -6 29 -20 102 -30
163 -11 60 -27 132 -35 160 -35 123 -65 247 -65 267 0 13 -5 30 -11 38 -10 14
-6 -41 7 -95 5 -20 5 -20 -10 -1 -9 11 -17 31 -18 45 0 14 -3 37 -5 51 -8 64
-9 232 -2 295 5 39 11 103 14 143 2 40 9 90 15 111 13 51 21 303 9 296 -5 -4
-9 -32 -9 -63 -1 -79 -26 -262 -39 -275 -7 -7 -8 -3 -4 11 3 14 -2 24 -18 32
-18 10 -21 10 -16 -3 3 -8 1 -19 -5 -25 -8 -8 -3 -15 15 -23 15 -7 27 -20 27
-31 0 -23 -9 -23 -27 0 -13 15 -14 15 -8 -10 7 -34 -7 -36 -27 -5 -11 16 -13
40 -8 90 3 37 2 67 -2 67 -5 0 -8 5 -8 11 0 5 5 7 11 3 7 -4 9 0 5 14 -17 54
-25 136 -14 143 9 6 8 18 -2 49 -11 33 -11 46 -2 61 14 22 16 61 3 75 -4 5 -4
51 1 104 4 52 6 100 4 107 -3 7 1 10 8 7 17 -7 8 66 -11 88 -8 9 -12 22 -8 28
4 6 3 45 0 86 -5 44 -11 71 -15 63 -5 -7 -11 7 -15 37 -3 27 -13 72 -20 99 -8
28 -16 69 -20 93 -3 24 -9 51 -14 60 -23 43 -42 101 -50 147 -5 28 -13 61 -17
75 -7 23 -6 24 11 10 17 -14 17 -14 7 6 -6 12 -14 39 -17 60 -12 77 -23 129
-24 114 -3 -29 -21 12 -21 48 0 17 -3 32 -8 32 -8 0 -22 30 -44 94 -10 32 -11
40 0 44 9 3 11 15 6 39 -11 58 10 31 50 -64 21 -49 44 -102 52 -120 8 -17 14
-37 14 -44 0 -7 6 -20 14 -28 8 -9 35 -61 61 -116 55 -118 54 -75 -1 49 -20
45 -46 108 -59 141 -12 33 -41 101 -64 151 -22 51 -41 99 -41 107 0 9 -6 20
-12 24 -21 13 -54 65 -68 108 -8 22 -18 44 -22 50 -4 5 -8 18 -7 30 0 11 3 14
6 8 2 -7 9 -13 14 -13 6 0 7 5 4 10 -3 6 1 13 10 16 12 5 13 9 5 14 -7 4 -12
27 -12 51 0 24 -2 38 -5 32 -9 -23 -20 -14 -32 28 -9 28 -9 44 -2 53 7 8 7 23
1 42 -56 175 -68 219 -60 222 19 7 10 40 -15 56 -14 9 -25 22 -25 29 -1 6 -7
26 -15 42 -10 19 -13 22 -9 8 3 -13 1 -23 -4 -23 -12 0 -25 47 -16 61 3 5 -1
20 -9 32 -7 12 -24 51 -36 86 -12 35 -32 77 -45 95 -26 33 -60 106 -69 146 -4
14 -21 41 -38 60 -18 19 -41 54 -51 77 -10 23 -23 45 -28 48 -6 3 -10 12 -10
20 0 8 -11 26 -25 40 -13 15 -29 43 -36 63 -6 21 -18 40 -25 45 -7 4 -10 15
-7 23 3 9 1 19 -4 23 -6 3 -25 32 -43 64 -17 31 -36 57 -41 57 -5 0 -8 10 -6
23 1 16 -3 22 -15 21 -10 -1 -16 1 -14 5 3 4 0 28 -6 54 -7 36 -14 47 -29 47
-18 0 -23 9 -20 35 0 6 -15 28 -35 50 -57 63 -121 157 -128 189 -13 53 -250
391 -363 517 -29 32 -53 62 -53 66 0 5 -36 45 -78 91 -43 45 -76 82 -73 82 3
0 -18 23 -48 50 -30 28 -56 50 -59 50 -2 0 -24 18 -49 40 -25 22 -49 37 -54
34 -5 -2 -28 13 -51 34 -24 22 -70 57 -103 80 -33 22 -70 52 -82 66 -13 14
-31 26 -40 26 -10 1 -36 12 -58 25 -62 38 -158 95 -175 104 -29 16 -145 70
-165 77 -11 4 -68 24 -128 45 -59 21 -129 41 -155 44 -55 7 -197 42 -228 57
-27 12 -85 20 -161 22 -34 0 -64 4 -67 7 -4 3 -58 5 -121 3 -65 -1 -115 2
-115 7 0 5 -4 9 -10 9 -5 0 -10 -4 -10 -8z m-489 -215 c-8 -8 -11 -7 -11 4 0
20 13 34 18 19 3 -7 -1 -17 -7 -23z m176 -740 c15 -29 17 -30 23 -12 7 19 8
19 15 2 4 -10 3 -23 -2 -28 -10 -10 -73 52 -73 72 0 17 19 -1 37 -34z m90 -33
c-9 -9 -27 6 -27 22 0 13 2 13 16 -1 9 -9 14 -18 11 -21z m-27 -56 c0 -13 -23
-5 -28 10 -2 7 2 10 12 6 9 -3 16 -11 16 -16z m44 8 c-3 -7 2 -16 10 -19 9 -4
16 -16 16 -27 0 -11 5 -20 10 -20 6 0 10 5 10 10 0 6 5 10 10 10 15 0 12 -16
-5 -34 -8 -8 -15 -24 -15 -35 0 -26 -12 -27 -33 -3 -13 14 -16 32 -13 73 5 61
4 59 11 59 2 0 2 -6 -1 -14z m-42 -125 c4 -1 14 -13 23 -28 l16 -28 -7 35 -6
35 21 -24 c11 -13 21 -29 21 -35 -1 -18 -70 -90 -70 -73 0 8 -3 23 -7 33 -4
12 -3 15 5 10 7 -4 12 -5 12 -2 0 8 -38 45 -42 41 -2 -2 -8 6 -14 18 -10 23
-7 24 48 18z m136 -77 c0 -18 -3 -22 -9 -13 -6 10 -9 6 -9 -12 0 -15 -8 -37
-19 -50 -10 -13 -16 -30 -14 -36 3 -7 2 -13 -2 -13 -3 0 -11 14 -16 30 -6 17
-17 30 -25 30 -8 0 -14 5 -14 10 0 6 6 10 14 8 8 -2 22 6 31 17 9 11 14 15 11
8 -4 -6 -2 -14 4 -18 5 -3 10 -1 10 5 0 10 29 60 35 60 1 0 3 -12 3 -26z m22
-49 c-7 -8 -17 -15 -22 -15 -6 0 -5 7 2 15 7 8 17 15 22 15 6 0 5 -7 -2 -15z
m-10 -41 c0 -8 6 -22 14 -29 7 -8 16 -32 20 -54 3 -23 11 -41 17 -41 5 0 7 -4
4 -10 -3 -5 0 -18 7 -27 15 -21 48 -29 48 -13 0 6 5 8 10 5 6 -3 10 -18 10
-33 1 -27 1 -27 18 -6 10 11 29 23 42 27 24 6 24 5 -5 -18 -33 -27 -31 -30 12
-15 l28 10 -24 -18 c-13 -11 -21 -24 -18 -30 4 -5 -5 -17 -18 -26 -14 -9 -23
-21 -20 -26 3 -6 16 -1 27 10 26 24 34 25 41 5 3 -7 -3 -24 -14 -37 -11 -13
-18 -17 -14 -10 3 6 1 12 -4 12 -6 0 -11 -4 -11 -10 0 -5 -12 -10 -26 -10 -20
0 -25 4 -20 16 4 10 1 14 -6 12 -7 -3 -13 -13 -13 -23 0 -13 9 -20 30 -22 47
-6 50 -19 9 -40 -37 -19 -61 -49 -30 -37 11 4 16 1 16 -11 0 -14 3 -15 15 -5
8 7 15 19 15 27 0 10 9 13 33 11 46 -4 40 -18 -20 -48 -41 -21 -50 -29 -42
-41 8 -11 12 -11 16 -1 2 6 12 12 21 12 8 0 23 7 33 16 22 20 46 9 28 -12 -12
-14 -3 -19 29 -15 6 1 12 -3 12 -9 0 -6 12 -3 28 8 15 10 35 22 45 25 16 6 16
4 4 -21 -12 -24 -13 -35 -8 -58 0 -3 6 -2 11 1 8 5 7 11 -1 21 -9 11 -8 14 5
14 10 0 14 -4 11 -10 -3 -5 0 -10 7 -10 7 0 -3 -16 -24 -35 -20 -18 -34 -36
-31 -38 2 -3 26 8 53 25 56 35 82 34 51 -1 -12 -13 -21 -29 -21 -35 0 -7 3 -7
8 -1 4 6 17 16 30 23 21 11 22 10 22 -19 0 -16 4 -28 9 -25 5 3 7 15 4 26 -3
11 0 20 6 20 6 0 11 -6 11 -13 0 -12 64 -47 88 -47 5 0 13 -6 15 -12 4 -9 6
-7 6 3 1 9 8 16 16 16 9 0 14 -6 11 -14 -3 -8 2 -13 13 -13 10 0 26 -10 34
-22 l16 -23 -6 25 c-4 14 -11 28 -17 32 -7 5 -7 8 2 8 8 0 16 -9 19 -20 3 -11
14 -20 24 -20 11 0 19 -6 19 -14 0 -7 10 -24 23 -37 13 -13 34 -39 47 -58 14
-20 26 -29 28 -22 2 7 -4 21 -14 32 -18 20 -9 45 12 31 18 -12 72 -97 97 -154
26 -58 77 -119 77 -92 0 8 -5 25 -11 36 -6 11 -15 34 -20 50 -13 47 15 17 36
-39 10 -25 24 -58 32 -72 l15 -26 -7 30 c-3 17 -14 48 -24 70 -11 22 -24 56
-30 75 l-11 35 20 -25 c15 -19 22 -22 28 -12 7 10 17 4 39 -25 17 -21 33 -48
37 -60 4 -11 13 -24 21 -27 8 -3 28 -32 45 -66 17 -33 35 -58 40 -55 13 8 35
-14 44 -43 4 -12 12 -20 17 -17 5 4 9 -6 9 -20 0 -15 4 -24 10 -20 14 9 30
-38 30 -89 0 -54 10 -106 20 -106 5 0 6 18 3 40 -4 26 -2 40 6 40 6 0 11 -9
11 -20 0 -43 33 -156 51 -170 9 -8 22 -33 28 -55 18 -71 25 -100 25 -110 1 -5
5 -13 10 -17 5 -3 10 -26 12 -50 1 -23 9 -61 19 -82 9 -22 21 -67 26 -100 6
-33 14 -65 18 -71 5 -5 11 -46 15 -90 3 -44 10 -96 15 -115 5 -19 12 -60 16
-90 6 -51 5 -54 -10 -35 -9 11 -26 41 -38 67 -12 26 -25 47 -29 48 -4 0 -4 -8
0 -17 12 -27 43 -96 53 -115 16 -32 9 -33 -18 -3 l-26 30 18 -29 c65 -107 70
-126 21 -81 -15 14 -29 25 -31 25 -3 0 -2 -19 1 -42 3 -32 2 -40 -6 -32 -7 7
-13 30 -14 53 -2 23 -8 47 -14 53 -15 15 -15 3 -2 -22 17 -32 -7 -33 -26 -1
-10 17 -21 28 -26 25 -4 -3 -5 2 -2 10 4 10 1 16 -8 16 -14 0 -80 105 -92 147
-7 21 -36 53 -36 38 0 -18 96 -194 146 -266 51 -74 65 -117 37 -112 -14 3 -27
-33 -18 -48 4 -5 1 -10 -6 -8 -27 3 -59 -1 -58 -8 4 -23 -4 -31 -36 -35 -19
-2 -35 0 -35 4 0 4 -3 7 -7 7 -5 -1 -10 -1 -13 1 -21 7 -65 7 -70 0 -4 -6 -20
-6 -43 1 -21 5 -48 7 -60 3 -47 -14 -87 -37 -87 -50 0 -15 -41 -18 -74 -5 -14
5 -16 10 -8 15 7 4 17 4 22 1 6 -3 10 -1 10 5 0 19 -30 23 -49 6 -10 -9 -25
-16 -34 -16 -15 0 -98 -41 -124 -62 -7 -6 -19 -8 -27 -5 -8 3 -22 -1 -33 -10
-16 -13 -16 -14 0 -9 9 3 17 2 17 -3 0 -5 -11 -12 -24 -15 -27 -7 -44 -42 -29
-57 6 -6 22 1 41 20 35 31 45 24 12 -9 -28 -28 -26 -42 5 -28 14 6 25 15 25
20 0 4 7 8 15 8 9 0 15 -9 15 -22 0 -13 4 -18 8 -13 9 13 55 18 47 5 -3 -6 1
-10 9 -10 9 0 16 6 16 14 0 14 74 54 130 71 22 7 23 6 11 -9 -12 -14 -11 -16
3 -16 9 0 25 9 35 19 19 19 51 23 62 7 4 -4 15 -3 25 3 18 10 18 10 1 11 -10
0 -16 4 -13 8 3 5 31 5 62 1 76 -10 88 -5 67 29 -17 27 -17 27 3 10 14 -12 32
-16 59 -13 32 3 34 3 10 -3 -16 -4 -29 -12 -28 -17 2 -5 -5 -10 -14 -10 -24 0
-28 -25 -4 -26 12 -1 27 -2 34 -3 6 -1 11 7 10 17 -1 12 4 17 14 13 8 -3 21
-6 28 -6 8 0 11 -7 8 -18 -4 -17 1 -19 48 -16 30 1 55 7 57 13 5 14 32 14 32
1 0 -5 10 -10 23 -10 29 0 117 -76 117 -101 0 -10 5 -21 10 -24 6 -3 10 -19
10 -36 0 -16 5 -29 12 -29 6 0 9 -3 6 -6 -3 -3 0 -26 6 -52 7 -26 9 -59 5 -74
-4 -14 -2 -48 4 -75 5 -26 11 -61 11 -78 1 -16 5 -36 9 -42 5 -9 3 -13 -7 -13
-9 0 -16 -4 -16 -10 0 -5 7 -10 15 -10 11 0 15 -9 13 -30 -2 -29 -4 -30 -38
-27 -48 6 -72 17 -66 32 3 9 -2 11 -15 8 -15 -4 -22 0 -26 16 -5 18 -8 19 -21
9 -13 -11 -14 -10 -7 11 6 20 4 23 -9 18 -22 -9 -46 2 -46 20 0 8 -8 13 -18
11 -11 -2 -19 1 -20 7 0 5 -10 13 -22 17 -17 6 -19 11 -10 28 9 16 15 18 37 9
39 -15 55 -30 48 -47 -4 -12 -3 -13 9 -3 12 10 26 5 76 -29 40 -27 65 -39 72
-32 6 6 -9 21 -44 42 -29 18 -61 41 -70 52 -9 11 -20 19 -25 19 -16 -2 -73 21
-73 29 0 4 -12 8 -27 8 -14 0 -32 7 -39 16 -7 10 -15 13 -18 8 -7 -11 -46 -4
-46 8 0 5 -9 6 -21 3 -32 -9 -2 -27 54 -32 13 -1 -2 -20 -25 -32 -18 -10 -20
-9 -14 6 4 13 2 16 -9 12 -8 -4 -17 -2 -21 4 -3 6 -10 6 -17 1 -7 -6 -23 -9
-37 -7 -14 1 -40 3 -59 4 -32 1 -33 2 -27 33 4 20 3 29 -3 23 -5 -6 -11 -19
-13 -30 -2 -11 -12 -21 -22 -23 -11 -2 -16 0 -12 7 4 5 -6 4 -21 -4 -15 -8
-48 -17 -73 -21 -56 -8 -170 -62 -241 -114 -89 -66 -239 -220 -239 -246 0 -6
20 -2 44 10 27 12 42 25 39 33 -4 9 0 11 11 7 14 -5 16 -2 12 17 -4 20 8 35
61 83 46 42 67 55 73 46 4 -7 12 -10 18 -6 5 3 12 -11 15 -33 2 -21 15 -61 28
-90 30 -64 46 -70 209 -75 150 -5 168 2 199 73 25 58 28 152 7 194 -18 33 -7
35 52 11 64 -25 103 -80 104 -144 0 -32 4 -39 25 -45 21 -5 23 -8 12 -21 -6
-8 -10 -16 -8 -17 7 -5 132 -27 177 -31 47 -5 49 -1 25 34 -13 18 -13 22 -2
18 46 -17 58 -18 72 -3 10 9 18 11 22 5 4 -6 10 -8 14 -5 5 2 17 -7 27 -20 10
-14 25 -25 33 -25 29 0 155 -145 205 -236 26 -48 49 -96 51 -105 2 -10 19 -48
38 -86 19 -37 51 -108 70 -158 98 -253 120 -446 88 -754 -16 -153 -80 -468
-101 -496 -4 -5 -10 -23 -14 -40 -4 -16 -15 -48 -25 -70 -10 -22 -29 -65 -41
-95 -62 -151 -182 -393 -213 -428 -8 -10 -21 -31 -30 -47 -8 -17 -31 -47 -51
-68 -20 -21 -36 -43 -36 -48 0 -6 -10 -20 -22 -33 -13 -12 -39 -43 -58 -69
-19 -25 -41 -47 -47 -47 -7 0 -13 -9 -13 -19 0 -10 -16 -31 -35 -47 -19 -15
-35 -33 -35 -39 0 -7 -28 -36 -62 -66 -35 -30 -76 -69 -93 -88 -38 -44 -40
-45 -115 -111 -34 -30 -83 -74 -107 -97 -24 -24 -46 -43 -49 -43 -3 0 -40 -30
-82 -67 -42 -37 -85 -74 -96 -83 -10 -8 -29 -25 -42 -38 -13 -12 -26 -22 -29
-22 -4 0 -23 -17 -43 -38 -21 -21 -50 -42 -65 -46 -15 -3 -27 -13 -27 -21 0
-8 -8 -15 -17 -15 -22 -1 -53 -23 -53 -39 0 -6 -5 -11 -11 -11 -6 0 -24 -12
-39 -27 -72 -70 -100 -91 -165 -125 -149 -76 -307 -125 -475 -148 -253 -35
-572 64 -900 279 -86 56 -211 156 -220 175 -8 17 -279 277 -359 344 -75 62
-222 215 -283 293 -15 20 -37 47 -50 60 -78 86 -211 262 -240 319 -7 14 -19
31 -26 39 -7 7 -24 36 -39 65 -14 28 -28 53 -32 56 -14 11 -106 239 -107 265
0 11 -15 52 -32 91 -30 68 -38 94 -66 214 -7 30 -21 84 -30 120 -84 317 -101
428 -100 635 1 205 18 295 94 505 23 63 49 135 57 160 8 25 24 70 35 100 35
99 75 223 103 320 21 74 34 101 58 122 16 14 36 24 44 21 9 -4 18 6 26 26 6
17 15 31 19 31 4 0 8 7 8 15 0 8 4 15 10 15 5 0 9 19 10 43 0 67 4 80 29 117
23 32 23 33 3 16 -19 -17 -22 -17 -28 -3 -3 9 1 26 10 39 9 12 16 39 16 60 0
21 4 38 10 38 6 0 6 9 0 25 -6 16 -6 25 0 25 6 0 10 7 10 15 0 8 11 17 25 21
14 3 25 11 25 18 0 6 9 17 20 24 19 12 20 10 15 -35 -3 -27 -14 -64 -24 -85
-13 -26 -14 -35 -4 -31 7 3 13 9 13 13 0 5 8 16 17 26 11 10 18 32 18 56 0 24
4 38 12 38 7 0 13 3 13 8 0 8 65 44 125 68 42 16 171 28 179 16 2 -4 24 -7 47
-5 24 1 49 -3 57 -9 10 -9 14 -6 19 10 6 23 48 31 55 11 5 -14 88 -22 88 -9 0
5 -5 12 -10 15 -6 4 -8 11 -5 16 4 5 0 9 -7 9 -10 0 -9 3 2 9 19 13 31 4 23
-15 -5 -13 -1 -15 15 -9 25 7 82 -27 82 -50 0 -15 27 -28 32 -15 2 4 21 2 43
-6 22 -7 46 -12 53 -9 6 2 12 0 12 -6 0 -14 44 -29 51 -17 4 6 19 3 39 -7 17
-9 34 -14 37 -11 3 3 -2 8 -11 12 -9 3 -16 11 -16 16 0 6 6 8 14 5 8 -3 17 -1
19 6 3 9 8 9 19 -1 11 -9 18 -10 23 -2 3 5 -1 10 -9 10 -8 0 -19 6 -23 13 -4
8 -17 19 -28 25 -18 10 -16 11 14 12 22 0 44 -8 59 -22 l25 -23 -18 28 c-16
25 -28 31 -80 39 -13 3 -19 10 -17 22 3 15 -1 18 -19 13 -15 -4 -31 0 -44 12
-27 25 -62 32 -75 16 -9 -10 -18 -11 -41 -3 -16 6 -38 8 -49 5 -10 -3 -21 0
-22 5 -2 5 -19 13 -38 17 -44 9 -41 26 5 26 19 0 35 5 35 10 0 6 -37 9 -95 8
-56 -1 -93 2 -90 8 4 5 -3 9 -14 9 -12 0 -21 7 -21 15 0 17 -2 18 -24 9 -22
-8 -20 -25 2 -18 14 5 15 4 2 -5 -8 -6 -26 -10 -40 -10 -23 0 -24 1 -5 10 14
6 8 7 -23 3 l-42 -6 10 29 10 28 -19 -25 c-26 -33 -37 -20 -16 19 15 31 15 31
-4 19 -11 -6 -18 -15 -16 -19 5 -7 -44 -19 -74 -19 -14 0 -14 2 -1 10 12 7 12
10 1 10 -8 0 -11 6 -7 18 3 9 -3 5 -15 -10 -11 -16 -25 -28 -31 -28 -6 0 -3
10 8 22 10 12 13 18 6 14 -7 -4 -23 -9 -36 -12 -22 -4 -23 -2 -19 40 4 28 1
46 -7 51 -7 5 -11 1 -10 -11 4 -36 -1 -50 -9 -29 -5 11 -7 36 -5 55 l4 35 -15
-39 c-8 -21 -13 -50 -10 -65 3 -16 2 -20 -2 -11 -10 19 -55 21 -66 3 -4 -7
-18 -13 -30 -12 -12 0 -17 3 -10 5 8 4 10 18 7 37 -3 26 -2 28 5 12 8 -16 10
-10 12 30 2 28 2 61 2 75 -1 39 17 90 33 90 8 0 14 10 14 24 0 13 3 32 7 42 4
12 3 15 -6 10 -11 -7 -54 -92 -63 -125 -2 -8 -2 69 0 171 4 156 2 189 -12 216
-18 34 -22 128 -6 134 6 2 11 28 11 58 3 91 18 24 23 -97 4 -107 16 -156 16
-67 0 27 2 128 4 225 5 163 7 179 30 226 14 28 26 56 26 63 0 6 16 32 35 57
19 25 35 54 35 63 0 10 8 28 18 41 21 29 39 66 45 94 3 11 5 2 6 -20 1 -30 4
-36 11 -25 5 8 10 25 10 38 0 12 7 25 15 28 8 4 15 14 15 23 0 9 7 26 15 37 8
12 13 23 12 25 -1 2 4 -2 11 -10 10 -12 12 -8 12 23 0 21 7 44 16 53 25 25 33
-1 17 -55 -37 -125 -47 -158 -52 -167 -7 -12 -11 -39 -15 -94 -4 -59 11 -30
28 56 8 37 21 88 29 113 33 96 56 184 51 191 -3 5 1 6 9 3 8 -3 20 2 27 10 7
9 16 14 20 11 4 -2 12 6 19 18 7 12 34 39 61 60 64 50 90 50 54 -1 -8 -12 -11
-22 -5 -22 5 0 16 9 24 21 9 13 16 16 19 9 2 -7 28 14 57 46 63 69 97 94 130
94 19 0 21 3 12 14 -9 11 -5 16 21 27 32 13 37 14 69 17 9 1 19 11 22 22 3 11
14 20 24 20 10 0 24 5 31 12 8 8 15 8 28 -3 14 -12 19 -10 34 9 19 23 45 29
55 12 9 -15 35 -12 29 4 -6 16 7 22 68 31 34 5 49 3 61 -9 8 -9 21 -16 27 -16
6 0 25 -7 41 -16 17 -8 33 -13 37 -10 3 3 -9 11 -26 17 -18 6 -30 15 -27 19 3
5 -2 13 -11 18 -10 6 -13 12 -6 16 6 3 13 2 17 -4 3 -5 14 -10 24 -10 10 0 26
-9 36 -20 10 -11 24 -20 32 -20 8 0 3 10 -14 25 l-28 25 29 -10 c20 -8 32 -8
40 0 7 7 4 10 -9 10 -13 0 -16 3 -9 10 12 12 61 -3 78 -24 6 -8 24 -22 41 -32
27 -18 29 -18 22 -1 -4 12 -1 17 10 17 24 0 12 8 -21 14 -34 6 -59 26 -33 26
9 0 34 -6 54 -14 21 -8 67 -17 103 -19 36 -3 56 -2 45 2 -11 5 -20 17 -20 31
0 13 -6 24 -13 26 -7 1 -8 0 -2 -3 17 -8 11 -20 -14 -25 -13 -3 -32 2 -42 10
-18 13 -17 14 9 8 26 -6 28 -5 22 14 -6 19 -4 20 37 14 30 -5 40 -3 33 4 -5 6
-21 12 -35 14 -34 5 -77 35 -83 57 -4 17 -1 18 27 10 40 -12 39 -12 32 7 -5
14 -4 15 9 4 8 -7 23 -9 32 -6 15 6 15 8 3 16 -12 8 -12 10 2 15 11 4 34 -5
63 -26 57 -41 70 -32 16 12 -32 25 -38 35 -29 46 9 11 14 11 28 -2 14 -13 19
-13 23 -3 3 9 12 6 32 -12 28 -25 26 -12 -4 24 -14 17 -12 17 13 -2 45 -34 54
-26 15 14 -21 22 -27 33 -15 28 16 -6 17 -3 12 22 -8 38 6 61 24 39 7 -8 18
-15 25 -15 8 0 16 -6 18 -12 4 -10 6 -10 6 -1 1 18 -50 62 -65 56 -8 -3 -14 0
-14 6 0 6 5 11 11 11 5 0 -1 15 -15 33 -31 40 -33 51 -7 35 11 -7 17 -17 14
-23 -3 -5 0 -5 7 2 10 9 8 16 -9 34 -16 17 -18 26 -10 36 15 18 29 16 29 -3z
m-40 -119 c20 -24 6 -28 -15 -5 -10 11 -13 20 -8 20 6 0 16 -7 23 -15z m8 -61
c-4 -3 -12 5 -18 18 -12 22 -12 22 6 6 10 -10 15 -20 12 -24z m325 -71 c-7 -2
-19 -2 -25 0 -7 3 -2 5 12 5 14 0 19 -2 13 -5z m27 -58 c-14 -7 -27 -11 -30
-9 -6 7 22 24 40 23 9 0 5 -6 -10 -14z m-33 -41 c-7 -7 -37 7 -37 17 0 6 9 5
21 -1 11 -7 19 -14 16 -16z m-612 -54 c3 -5 1 -10 -4 -10 -6 0 -11 5 -11 10 0
6 2 10 4 10 3 0 8 -4 11 -10z m73 -18 c2 -7 -3 -10 -12 -7 -9 3 -23 7 -32 10
-8 3 -13 9 -9 14 7 12 47 -1 53 -17z m-338 -32 c0 -5 -2 -10 -4 -10 -3 0 -8 5
-11 10 -3 6 -1 10 4 10 6 0 11 -4 11 -10z m-2459 -27 c-12 -20 -14 -14 -5 12
4 9 9 14 11 11 3 -2 0 -13 -6 -23z m3324 7 c-3 -5 -11 -10 -16 -10 -6 0 -7 5
-4 10 3 6 11 10 16 10 6 0 7 -4 4 -10z m20 -20 c-3 -5 -11 -10 -16 -10 -6 0
-7 5 -4 10 3 6 11 10 16 10 6 0 7 -4 4 -10z m96 -33 c-9 -9 -10 -5 -7 13 6 36
8 37 13 16 3 -10 0 -23 -6 -29z m68 10 c-35 -28 -69 -46 -69 -38 0 10 47 40
64 41 5 0 7 -1 5 -3z m56 -67 c3 -5 -1 -10 -10 -10 -9 0 -13 5 -10 10 3 6 8
10 10 10 2 0 7 -4 10 -10z m78 -51 c-8 -8 -16 -8 -30 0 -16 9 -14 10 12 11 21
0 26 -3 18 -11z m2250 -90 c4 -16 3 -18 -8 -9 -7 6 -15 20 -18 31 -4 16 -3 18
8 9 7 -6 15 -20 18 -31z m-4023 22 c0 -6 -4 -13 -10 -16 -5 -3 -10 1 -10 9 0
9 5 16 10 16 6 0 10 -4 10 -9z m-30 -31 c0 -5 -5 -10 -11 -10 -5 0 -7 5 -4 10
3 6 8 10 11 10 2 0 4 -4 4 -10z m2000 -9 c16 -30 12 -36 -10 -16 -21 19 -26
35 -10 35 5 0 14 -9 20 -19z m414 -326 c3 -9 0 -15 -9 -15 -8 0 -15 7 -15 15
0 8 4 15 9 15 5 0 11 -7 15 -15z m156 -253 c0 -15 -2 -15 -10 -2 -13 20 -13
33 0 25 6 -3 10 -14 10 -23z m1899 -257 c0 -5 -6 1 -14 15 -8 14 -14 30 -14
35 0 6 6 -1 14 -15 8 -14 14 -29 14 -35z m71 -116 c0 -6 -4 -7 -10 -4 -5 3
-10 11 -10 16 0 6 5 7 10 4 6 -3 10 -11 10 -16z m7 -118 c-5 -21 -27 32 -27
62 1 17 4 15 16 -12 8 -19 13 -42 11 -50z m32 -108 c0 -31 -2 -34 -9 -18 -12
28 -12 55 0 55 6 0 10 -17 9 -37z m-6953 -31 c-14 -14 -16 -14 -16 -1 0 20 23
44 29 28 2 -6 -4 -18 -13 -27z m1673 -15 c0 -21 -1 -21 -9 -2 -12 28 -12 37 0
30 6 -3 10 -16 9 -28z m-19 -69 c0 -39 -2 -69 -4 -67 -8 9 -13 139 -5 139 5 0
9 -32 9 -72z m5330 -3 c0 -8 6 -14 13 -12 7 1 13 -10 15 -28 l2 -30 -14 25
c-9 14 -16 21 -16 15 -1 -14 -20 17 -20 33 0 6 5 12 10 12 6 0 10 -7 10 -15z
m-5303 -52 c-3 -10 -5 -2 -5 17 0 19 2 27 5 18 2 -10 2 -26 0 -35z m3498 7 c3
-5 1 -10 -4 -10 -6 0 -11 5 -11 10 0 6 2 10 4 10 3 0 8 -4 11 -10z m-3495 -89
c0 -6 -4 -13 -10 -16 -5 -3 -10 1 -10 9 0 9 5 16 10 16 6 0 10 -4 10 -9z m0
-65 c0 -3 -4 -8 -10 -11 -5 -3 -10 -1 -10 4 0 6 5 11 10 11 6 0 10 -2 10 -4z
m-23 -78 c-3 -7 -5 -2 -5 12 0 14 2 19 5 13 2 -7 2 -19 0 -25z m-1795 -29 c-9
-35 -25 -42 -30 -13 -3 10 0 14 7 10 7 -4 11 1 11 12 0 19 10 35 17 28 2 -2 0
-19 -5 -37z m7203 -59 c-9 -41 -25 -22 -25 30 0 31 1 33 16 18 12 -11 14 -25
9 -48z m-5405 -35 c0 -14 -4 -25 -9 -25 -4 0 -6 11 -3 25 2 14 6 25 8 25 2 0
4 -11 4 -25z m3534 -1 c3 -8 2 -12 -4 -9 -6 3 -10 10 -10 16 0 14 7 11 14 -7z
m-2924 -184 c0 -5 -2 -10 -4 -10 -3 0 -8 5 -11 10 -3 6 -1 10 4 10 6 0 11 -4
11 -10z m340 -100 c0 -5 -4 -10 -9 -10 -6 0 -13 5 -16 10 -3 6 1 10 9 10 9 0
16 -4 16 -10z m2410 -10 c0 -5 -2 -10 -4 -10 -3 0 -8 5 -11 10 -3 6 -1 10 4
10 6 0 11 -4 11 -10z m-3230 -34 c0 -2 -11 -11 -25 -20 -14 -9 -25 -12 -25 -6
0 6 10 15 23 20 27 11 27 11 27 6z m847 -12 c-3 -3 -12 -4 -19 -1 -8 3 -5 6 6
6 11 1 17 -2 13 -5z m2391 -426 c7 -7 8 -17 1 -29 -8 -15 -13 -17 -28 -7 -11
7 -16 19 -13 30 5 20 22 24 40 6z m-337 -114 c25 -31 -24 -68 -60 -45 -9 6
-11 18 -7 35 7 30 45 36 67 10z m-5106 -79 c-5 -46 -3 -65 5 -65 13 0 6 -114
-10 -169 -6 -21 -5 -31 2 -31 11 0 7 -36 -12 -125 -7 -31 -8 -25 -4 28 4 43 2
67 -5 67 -14 0 -5 151 10 161 8 5 8 8 -1 14 -15 10 0 185 16 185 4 0 3 -29 -1
-65z m5722 -101 c-3 -3 -12 -4 -19 -1 -8 3 -5 6 6 6 11 1 17 -2 13 -5z m1980
-226 c-2 -13 -4 -5 -4 17 -1 22 1 32 4 23 2 -10 2 -28 0 -40z m17 -156 c-9
-69 -24 -56 -24 21 0 55 1 60 16 46 12 -12 14 -27 8 -67z m-7727 -9 c-3 -10
-5 -2 -5 17 0 19 2 27 5 18 2 -10 2 -26 0 -35z m7723 -230 c0 -7 -4 -13 -9
-13 -10 0 -21 36 -13 45 7 7 22 -15 22 -32z m71 -306 c-1 -12 -15 -9 -19 4 -3
6 1 10 8 8 6 -3 11 -8 11 -12z m-7895 -132 c-9 -21 -16 -47 -16 -59 0 -12 -7
-31 -15 -42 -14 -18 -14 -16 -8 16 3 19 12 50 19 69 8 18 12 37 9 41 -3 5 0
21 7 37 l13 28 3 -27 c2 -14 -4 -43 -12 -63z m-85 -202 c-9 -16 -10 -14 -11
12 0 21 3 26 11 18 8 -8 8 -16 0 -30z m-34 -75 c-3 -8 -6 -5 -6 6 -1 11 2 17
5 13 3 -3 4 -12 1 -19z m-27 -18 c0 -5 -5 -10 -11 -10 -5 0 -7 5 -4 10 3 6 8
10 11 10 2 0 4 -4 4 -10z m-89 -264 c-6 -7 -15 -30 -20 -52 l-9 -39 -1 49 c-1
34 4 55 17 69 15 17 17 17 20 3 2 -9 -1 -23 -7 -30z m8259 -123 c0 -13 -4 -23
-10 -23 -5 0 -10 17 -10 38 0 27 3 33 10 22 5 -8 10 -25 10 -37z m-7985 -112
c-4 -34 -12 -61 -17 -61 -11 0 -5 100 7 120 13 22 17 0 10 -59z m8025 -4 c0
-5 -4 -5 -10 -2 -5 3 -10 14 -10 23 0 15 2 15 10 2 5 -8 10 -19 10 -23z m4
-89 c10 -84 7 -290 -4 -302 -3 -3 -6 41 -6 97 -1 56 -4 137 -8 180 -9 87 8
110 18 25z m-8177 -300 c-3 -8 -6 -5 -6 6 -1 11 2 17 5 13 3 -3 4 -12 1 -19z
m-310 -230 c-3 -7 -5 -2 -5 12 0 14 2 19 5 13 2 -7 2 -19 0 -25z m33 -106 c-1
-15 -1 -31 0 -37 1 -5 3 -41 5 -80 2 -38 6 -97 9 -130 3 -33 7 -81 9 -107 2
-26 0 -52 -3 -59 -11 -17 -20 47 -26 181 -3 69 -10 153 -15 187 -6 34 -8 67
-4 72 11 18 26 1 25 -27z m307 -19 c-3 -10 -5 -4 -5 12 0 17 2 24 5 18 2 -7 2
-21 0 -30z m-280 5 c-3 -8 -6 -5 -6 6 -1 11 2 17 5 13 3 -3 4 -12 1 -19z m13
-73 c0 -14 -4 -25 -10 -25 -11 0 -14 33 -3 43 11 11 13 8 13 -18z m20 -394 c0
-6 -4 -13 -10 -16 -5 -3 -10 1 -10 9 0 9 5 16 10 16 6 0 10 -4 10 -9z m14 -72
c10 -49 7 -79 -7 -79 -9 0 -13 17 -13 55 -1 60 10 73 20 24z m8536 -104 c0
-15 -18 -30 -27 -22 -2 3 -2 15 2 26 7 23 25 19 25 -4z m-8550 -61 c0 -21 -4
-33 -10 -29 -17 10 -11 65 7 65 2 0 3 -16 3 -36z m7 -171 c-3 -10 -5 -2 -5 17
0 19 2 27 5 18 2 -10 2 -26 0 -35z m-67 7 c0 -5 -5 -10 -11 -10 -5 0 -7 5 -4
10 3 6 8 10 11 10 2 0 4 -4 4 -10z m25 -177 c-6 -129 -10 -171 -17 -153 -6 15
-7 64 -2 120 4 52 6 119 5 148 -2 49 5 79 16 68 3 -2 2 -85 -2 -183z m8733
164 c-1 -2 3 -11 11 -20 7 -10 10 -17 6 -17 -5 0 -1 -8 7 -17 10 -12 12 -26 7
-43 -6 -20 -7 -21 -8 -5 -1 11 -8 33 -16 49 -14 27 -21 76 -9 64 3 -4 4 -8 2
-11z m-278 -181 l-1 -31 -14 34 c-19 43 -19 57 0 41 8 -7 15 -27 15 -44z m-93
-278 c-3 -8 -6 -5 -6 6 -1 11 2 17 5 13 3 -3 4 -12 1 -19z m82 -25 c0 -10 -4
-27 -9 -38 -7 -16 -9 -13 -9 18 -1 20 4 37 9 37 6 0 10 -8 9 -17z m-45 -75
c10 -39 6 -111 -9 -153 -8 -22 -15 -50 -15 -62 0 -12 -5 -25 -11 -29 -7 -4 -9
0 -5 12 5 17 15 161 16 227 0 33 15 36 24 5z m317 -85 c-9 -15 -10 -13 -11 12
0 17 4 41 8 55 6 23 7 21 10 -12 2 -21 -1 -46 -7 -55z m-8511 37 c0 -5 -2 -10
-4 -10 -3 0 -8 5 -11 10 -3 6 -1 10 4 10 6 0 11 -4 11 -10z m-255 -130 c-4
-17 -9 -29 -12 -26 -3 2 -2 19 2 36 4 17 9 29 12 26 3 -2 2 -19 -2 -36z m8498
0 c-3 -11 -7 -20 -9 -20 -2 0 -4 9 -4 20 0 11 4 20 9 20 5 0 7 -9 4 -20z
m-8306 -22 c-3 -8 -6 -5 -6 6 -1 11 2 17 5 13 3 -3 4 -12 1 -19z m8259 -26
c-11 -10 -15 4 -8 28 l7 25 3 -23 c2 -13 1 -26 -2 -30z m-8222 1 c-7 -41 -30
-124 -45 -161 -5 -13 -9 -34 -9 -47 0 -56 -52 -205 -72 -205 -10 0 -10 -2 6
56 7 27 14 58 14 69 0 11 5 38 10 60 17 72 22 105 13 105 -4 0 -13 -10 -20
-22 -11 -23 -11 -23 -5 2 3 14 15 39 25 56 11 17 19 39 19 48 0 9 6 15 12 14
7 -2 20 12 28 29 20 44 32 41 24 -4z m-264 -35 c0 -7 -9 -26 -20 -43 -17 -25
-20 -27 -20 -10 0 36 12 65 26 65 8 0 14 -6 14 -12z m124 -122 c-3 -15 -8 -25
-11 -23 -2 3 -1 17 3 31 3 15 8 25 11 23 2 -3 1 -17 -3 -31z m8414 8 c-7 -15
-14 -21 -16 -15 -2 7 2 18 8 26 18 22 21 18 8 -11z m-8221 -76 c-2 -24 -14
-63 -26 -88 l-21 -45 5 49 c7 63 26 126 38 126 5 0 7 -18 4 -42z m-219 -24
c-6 -21 -13 -32 -15 -23 -4 17 15 75 22 67 2 -2 -1 -22 -7 -44z m-58 -204 c0
-22 -4 -40 -10 -40 -5 0 -10 18 -10 40 0 22 5 40 10 40 6 0 10 -18 10 -40z
m8390 21 c0 -6 -4 -13 -10 -16 -5 -3 -10 1 -10 9 0 9 5 16 10 16 6 0 10 -4 10
-9z m-14 -70 c-12 -19 -24 -12 -19 10 4 13 9 17 15 11 6 -6 7 -15 4 -21z"/>
<path d="M5012 8118 c5 -15 28 -23 28 -10 0 5 -7 13 -16 16 -10 4 -14 1 -12
-6z"/>
<path d="M5020 8075 c0 -8 7 -15 16 -15 14 0 14 3 4 15 -7 8 -14 15 -16 15 -2
0 -4 -7 -4 -15z"/>
<path d="M4867 7929 c7 -7 15 -10 18 -7 3 3 -2 9 -12 12 -14 6 -15 5 -6 -5z"/>
<path d="M4918 7853 c7 -3 16 -2 19 1 4 3 -2 6 -13 5 -11 0 -14 -3 -6 -6z"/>
<path d="M5080 7853 c-14 -2 -36 -13 -50 -24 -14 -12 -19 -18 -12 -14 6 3 12
0 12 -7 0 -9 3 -9 8 -2 4 6 22 17 40 25 17 8 32 17 32 21 0 5 -1 7 -2 7 -2 -1
-14 -4 -28 -6z"/>
<path d="M5065 7801 c5 -9 1 -19 -11 -29 -18 -14 -18 -14 1 -7 11 5 30 8 43 8
12 -1 22 3 22 8 0 5 -8 9 -18 9 -10 0 -24 6 -31 13 -11 10 -12 9 -6 -2z"/>
<path d="M4570 7781 c0 -13 28 -33 41 -29 6 2 0 12 -15 21 -14 10 -26 13 -26
8z"/>
<path d="M5183 7761 c0 -29 1 -30 19 -14 10 9 18 18 18 21 0 3 -3 2 -7 -1 -3
-4 -11 1 -18 9 -10 14 -12 12 -12 -15z"/>
<path d="M4965 7760 c-3 -5 1 -10 10 -10 9 0 13 5 10 10 -3 6 -8 10 -10 10 -2
0 -7 -4 -10 -10z"/>
<path d="M4725 7750 c3 -5 11 -10 16 -10 6 0 7 5 4 10 -3 6 -11 10 -16 10 -6
0 -7 -4 -4 -10z"/>
<path d="M5244 7738 l-19 -23 23 19 c21 18 27 26 19 26 -2 0 -12 -10 -23 -22z"/>
<path d="M5290 7746 c0 -24 17 -28 23 -6 3 13 0 20 -9 20 -8 0 -14 -6 -14 -14z"/>
<path d="M4420 7740 c0 -5 5 -10 10 -10 6 0 10 5 10 10 0 6 -4 10 -10 10 -5 0
-10 -4 -10 -10z"/>
<path d="M4130 7709 c0 -5 5 -7 10 -4 6 3 10 8 10 11 0 2 -4 4 -10 4 -5 0 -10
-5 -10 -11z"/>
<path d="M4314 7701 c4 -6 22 -11 39 -11 18 0 52 -5 76 -11 30 -7 47 -7 53 1
4 5 6 8 3 6 -3 -2 -23 1 -43 6 -65 16 -135 21 -128 9z"/>
<path d="M4578 7633 c7 -3 16 -2 19 1 4 3 -2 6 -13 5 -11 0 -14 -3 -6 -6z"/>
<path d="M5615 7560 c-3 -5 -1 -10 4 -10 6 0 11 5 11 10 0 6 -2 10 -4 10 -3 0
-8 -4 -11 -10z"/>
<path d="M5711 7544 c0 -11 3 -14 6 -6 3 7 2 16 -1 19 -3 4 -6 -2 -5 -13z"/>
<path d="M3661 7402 c-7 -13 -11 -26 -8 -28 8 -8 29 25 25 38 -3 8 -9 4 -17
-10z"/>
<path d="M3575 7380 c-3 -5 -1 -10 4 -10 6 0 11 5 11 10 0 6 -2 10 -4 10 -3 0
-8 -4 -11 -10z"/>
<path d="M3542 7330 c-7 -11 -12 -25 -12 -32 1 -7 8 0 16 15 18 33 14 46 -4
17z"/>
<path d="M3560 7276 c0 -2 7 -7 16 -10 8 -3 12 -2 9 4 -6 10 -25 14 -25 6z"/>
<path d="M3525 7229 c-4 -6 -5 -12 -2 -15 2 -3 7 2 10 11 7 17 1 20 -8 4z"/>
<path d="M6025 7170 c8 -38 24 -74 30 -68 5 4 -24 90 -32 98 -3 3 -2 -11 2
-30z"/>
<path d="M6061 7055 c-1 -28 25 -110 31 -99 3 5 -2 34 -12 64 -10 30 -18 46
-19 35z"/>
<path d="M3416 6945 c-9 -26 -7 -32 5 -12 6 10 9 21 6 23 -2 3 -7 -2 -11 -11z"/>
<path d="M6090 6931 c0 -23 53 -231 58 -227 2 3 -8 56 -23 118 -26 107 -35
137 -35 109z"/>
<path d="M3332 6890 c0 -14 2 -19 5 -12 2 6 2 18 0 25 -3 6 -5 1 -5 -13z"/>
<path d="M3321 6834 c0 -11 3 -14 6 -6 3 7 2 16 -1 19 -3 4 -6 -2 -5 -13z"/>
<path d="M3181 6813 c0 -5 7 -24 15 -43 l14 -35 -5 34 c-3 18 -5 37 -5 42 0 5
-4 9 -10 9 -5 0 -10 -3 -9 -7z"/>
<path d="M6171 6734 c0 -11 3 -14 6 -6 3 7 2 16 -1 19 -3 4 -6 -2 -5 -13z"/>
<path d="M3382 6710 c0 -14 2 -19 5 -12 2 6 2 18 0 25 -3 6 -5 1 -5 -13z"/>
<path d="M3411 6704 c0 -11 3 -14 6 -6 3 7 2 16 -1 19 -3 4 -6 -2 -5 -13z"/>
<path d="M6160 6650 c0 -8 5 -22 10 -30 9 -13 10 -13 10 0 0 8 -5 22 -10 30
-9 13 -10 13 -10 0z"/>
<path d="M3401 6614 c0 -11 3 -14 6 -6 3 7 2 16 -1 19 -3 4 -6 -2 -5 -13z"/>
<path d="M6180 6578 c0 -17 2 -18 15 -8 8 7 15 14 15 15 0 2 -7 5 -15 9 -10 4
-15 -1 -15 -16z"/>
<path d="M6485 6540 c3 -5 8 -10 11 -10 2 0 4 5 4 10 0 6 -5 10 -11 10 -5 0
-7 -4 -4 -10z"/>
<path d="M6216 6501 c8 -42 56 -175 50 -141 -7 44 -34 139 -46 157 -9 14 -10
11 -4 -16z"/>
<path d="M3122 6420 c0 -14 2 -19 5 -12 2 6 2 18 0 25 -3 6 -5 1 -5 -13z"/>
<path d="M3232 6355 c0 -16 2 -22 5 -12 2 9 2 23 0 30 -3 6 -5 -1 -5 -18z"/>
<path d="M3151 6304 c0 -11 3 -14 6 -6 3 7 2 16 -1 19 -3 4 -6 -2 -5 -13z"/>
<path d="M6261 6295 c1 -19 18 -51 18 -35 0 8 -4 22 -9 30 -5 8 -9 11 -9 5z"/>
<path d="M3204 6215 c-3 -8 -4 -20 -2 -27 3 -7 7 -1 10 15 6 29 1 36 -8 12z"/>
<path d="M6290 6206 c0 -2 7 -9 15 -16 9 -7 15 -8 15 -2 0 5 -7 12 -15 16 -8
3 -15 4 -15 2z"/>
<path d="M3272 6170 c0 -14 2 -19 5 -12 2 6 2 18 0 25 -3 6 -5 1 -5 -13z"/>
<path d="M3311 6104 c0 -11 3 -14 6 -6 3 7 2 16 -1 19 -3 4 -6 -2 -5 -13z"/>
<path d="M3261 6003 c-14 -70 -14 -95 -2 -73 10 17 26 130 19 130 -3 0 -10
-26 -17 -57z"/>
<path d="M6500 6019 c0 -8 12 -26 27 -40 19 -16 23 -18 12 -4 -9 11 -21 29
-27 40 -9 15 -11 16 -12 4z"/>
<path d="M3173 5930 c0 -25 2 -35 4 -22 2 12 2 32 0 45 -2 12 -4 2 -4 -23z"/>
<path d="M6364 5685 c27 -27 41 -31 51 -15 3 5 -11 16 -31 25 -48 20 -49 19
-20 -10z"/>
<path d="M3850 5670 c-10 -18 -8 -20 17 -20 15 0 38 -3 51 -6 13 -4 22 -2 22
5 0 6 -7 11 -15 11 -8 0 -15 7 -15 15 0 23 -47 19 -60 -5z"/>
<path d="M3798 5538 c5 -5 16 -8 23 -6 8 3 3 7 -10 11 -17 4 -21 3 -13 -5z"/>
<path d="M5945 5450 c-3 -5 -1 -10 4 -10 6 0 11 5 11 10 0 6 -2 10 -4 10 -3 0
-8 -4 -11 -10z"/>
<path d="M4116 5431 c-3 -5 1 -12 10 -15 25 -10 34 -7 28 9 -7 17 -30 20 -38
6z"/>
<path d="M4190 5405 c7 -9 15 -13 17 -11 7 7 -7 26 -19 26 -6 0 -6 -6 2 -15z"/>
<path d="M6700 5204 c0 -13 18 -39 24 -34 2 3 -2 14 -10 24 -8 11 -14 16 -14
10z"/>
<path d="M3759 5186 c-2 -2 -57 -7 -121 -10 -64 -3 -143 -13 -175 -22 -32 -9
-69 -19 -83 -22 -28 -6 -124 -56 -159 -84 -17 -13 -27 -15 -31 -8 -7 12 -50
-48 -60 -84 -4 -13 -25 -26 -63 -39 -31 -10 -57 -22 -57 -27 0 -11 39 -24 47
-16 4 3 12 1 19 -5 9 -8 22 -8 41 -1 18 6 37 6 53 0 l25 -10 -23 -9 c-27 -10
-24 -35 4 -32 10 1 26 0 34 -4 48 -20 110 -13 110 13 0 11 4 12 19 4 27 -14
49 -14 34 1 -15 15 7 39 37 39 12 0 18 4 15 11 -14 22 7 78 43 116 34 34 126
82 137 71 3 -2 -5 -31 -16 -64 -15 -41 -19 -71 -15 -99 10 -61 38 -123 63
-136 13 -7 23 -18 23 -26 0 -7 10 -13 23 -13 17 0 19 2 7 10 -21 13 -5 24 18
11 12 -6 40 -7 83 -1 35 5 85 10 111 10 41 0 50 4 76 36 32 38 52 94 52 143 0
17 5 31 11 31 40 0 123 -99 136 -161 4 -21 18 -38 44 -54 20 -13 40 -29 44
-35 3 -6 11 -8 16 -5 11 8 -14 69 -45 109 -13 17 -26 41 -30 53 -4 13 -10 22
-14 22 -19 -3 -25 2 -13 10 11 7 -5 29 -75 98 -49 48 -105 97 -124 107 -48 26
-130 55 -158 56 -13 0 -31 4 -41 10 -10 5 -20 8 -22 6z m-184 -36 c3 -6 -4
-10 -17 -10 -18 0 -20 2 -8 10 19 12 18 12 25 0z m-135 -40 c-20 -13 -40 -13
-40 0 0 6 12 10 28 10 21 0 24 -2 12 -10z m-74 -32 c4 -6 3 -8 -4 -4 -6 3 -13
2 -17 -4 -3 -5 -11 -10 -17 -10 -7 0 -6 6 2 15 15 18 26 19 36 3z m-73 -33
c-3 -9 -8 -14 -10 -11 -3 3 -2 9 2 15 9 16 15 13 8 -4z m778 -21 c31 -34 32
-35 6 -19 -23 15 -56 55 -44 55 2 0 19 -16 38 -36z m-197 -10 c22 -21 20 -41
-4 -54 -26 -14 -60 3 -60 31 0 16 12 26 47 38 1 1 9 -6 17 -15z m284 -89 c-3
-3 -13 7 -23 22 l-17 28 23 -22 c12 -12 20 -25 17 -28z"/>
<path d="M5849 5043 c-13 -16 -12 -17 4 -4 9 7 17 15 17 17 0 8 -8 3 -21 -13z"/>
<path d="M3615 4730 c-3 -5 1 -10 9 -10 9 0 16 5 16 10 0 6 -4 10 -9 10 -6 0
-13 -4 -16 -10z"/>
<path d="M6250 4683 c-13 -15 -12 -16 4 -10 10 4 20 7 22 7 2 0 4 5 4 10 0 15
-13 12 -30 -7z"/>
<path d="M4521 3145 c-38 -13 -33 -20 19 -24 19 -1 47 -7 62 -12 14 -6 34 -9
43 -7 15 2 13 7 -9 31 -28 30 -58 33 -115 12z"/>
<path d="M5200 3100 l-45 -49 30 1 c29 1 77 19 121 48 20 12 20 15 5 32 -27
31 -62 21 -111 -32z"/>
<path d="M3770 2566 c-14 -39 -1 -63 54 -98 28 -17 80 -59 116 -92 36 -34 92
-86 125 -116 33 -30 69 -65 80 -78 42 -46 172 -149 218 -171 27 -13 51 -29 54
-36 2 -8 11 -11 19 -8 8 3 21 0 29 -7 11 -9 15 -10 15 -1 0 8 8 10 23 5 22 -7
22 -6 3 15 -11 11 -24 21 -31 21 -6 0 -22 11 -35 25 -13 14 -31 25 -41 25 -10
0 -21 5 -24 10 -4 6 -11 8 -16 5 -5 -4 -9 -1 -9 4 0 6 -9 11 -20 11 -11 0 -23
7 -26 15 -4 8 -12 15 -18 15 -7 0 -23 14 -36 32 -17 22 -19 30 -7 25 9 -3 18
-1 20 6 3 9 10 9 27 -1 18 -11 24 -11 30 -2 6 9 11 8 18 -6 12 -23 72 -60 72
-45 0 6 8 11 18 11 11 0 24 11 30 25 9 18 19 25 41 25 16 0 34 7 41 15 11 13
15 13 21 3 6 -9 11 -10 18 -3 10 10 53 8 201 -10 30 -4 58 -13 63 -20 5 -10
15 -11 39 -4 18 5 34 5 37 0 5 -7 64 -7 226 3 28 2 61 -1 75 -6 16 -6 26 -6
28 1 9 26 22 8 22 -29 0 -22 -4 -40 -9 -40 -13 0 -7 -33 7 -38 7 -2 12 2 12 8
0 6 6 10 13 7 6 -2 29 2 50 9 20 7 44 11 52 8 8 -4 15 -1 15 5 0 17 46 82 53
75 8 -9 47 15 47 29 1 28 20 41 57 40 21 -1 32 0 25 3 -20 9 -3 24 28 24 16 0
31 4 35 9 3 5 20 13 37 17 19 4 54 27 83 55 83 80 115 107 146 119 33 14 38
36 10 45 -19 6 -33 2 -96 -26 -22 -9 -69 -20 -105 -23 -106 -10 -181 -16 -260
-21 -67 -4 -78 -8 -103 -35 -15 -16 -37 -30 -48 -30 -10 0 -19 -4 -19 -10 0
-5 -11 -10 -25 -10 -26 0 -34 15 -12 23 6 3 2 4 -10 4 -21 -1 -27 -9 -24 -29
1 -8 -21 -12 -53 -8 -10 1 -27 -8 -37 -19 -18 -19 -28 -20 -137 -16 -64 3
-130 7 -145 11 -15 3 -33 1 -40 -4 -24 -19 -83 -23 -119 -8 -21 9 -39 11 -44
6 -14 -14 -52 0 -57 21 -4 15 -13 19 -34 17 -21 -2 -28 1 -27 14 1 13 -2 15
-13 9 -20 -11 -73 9 -73 27 0 9 -6 12 -16 8 -8 -3 -12 -2 -9 4 3 6 2 10 -4 10
-5 0 -11 -6 -14 -12 -3 -10 -7 -10 -18 -1 -25 20 -97 34 -232 43 -73 6 -148
12 -167 15 -31 4 -96 31 -110 45 -3 3 -17 11 -31 19 -15 7 -32 24 -38 37 -14
31 -29 31 -41 0z m457 -363 c2 -5 -3 -15 -10 -22 -11 -9 -17 -8 -27 3 -6 9 -9
19 -6 25 8 12 39 8 43 -6z m1093 -53 c-18 -11 -24 -6 -16 16 5 14 9 15 19 5 9
-9 9 -14 -3 -21z"/>
<path d="M4598 2383 c7 -3 16 -2 19 1 4 3 -2 6 -13 5 -11 0 -14 -3 -6 -6z"/>
<path d="M5517 2104 c-16 -9 -25 -20 -21 -26 5 -7 2 -9 -8 -5 -9 3 -21 0 -27
-6 -6 -6 -29 -10 -51 -9 -32 2 -39 0 -34 -13 4 -9 1 -15 -9 -15 -22 0 -41 -26
-25 -34 7 -3 -1 -4 -19 -1 -24 3 -31 1 -27 -9 3 -7 -3 -16 -13 -20 -14 -6 -15
-9 -4 -16 18 -10 41 -2 41 15 0 8 12 12 36 11 21 -1 42 5 53 15 23 22 64 44
75 41 11 -4 33 15 57 49 23 33 14 42 -24 23z"/>
<path d="M1890 7751 c0 -5 -3 -17 -6 -25 -4 -12 -2 -15 9 -10 22 8 29 31 11
38 -8 3 -14 1 -14 -3z"/>
<path d="M1837 7642 c-9 -21 -17 -45 -17 -53 0 -8 -9 -27 -20 -44 -29 -44 -24
-50 10 -15 17 17 30 38 30 46 0 9 7 32 16 51 11 21 13 38 7 44 -6 6 -15 -5
-26 -29z"/>
<path d="M8486 6143 c-6 -14 -5 -15 5 -6 7 7 10 15 7 18 -3 3 -9 -2 -12 -12z"/>
<path d="M8500 6043 c1 -13 29 -59 30 -48 0 21 -13 55 -21 55 -5 0 -9 -3 -9
-7z"/>
<path d="M1171 5704 c0 -11 3 -14 6 -6 3 7 2 16 -1 19 -3 4 -6 -2 -5 -13z"/>
<path d="M8670 5483 c0 -13 5 -23 10 -23 13 0 13 11 0 30 -8 12 -10 11 -10 -7z"/>
<path d="M8670 5392 c0 -5 7 -23 15 -38 l15 -29 0 26 c0 15 -7 32 -15 39 -9 7
-15 8 -15 2z"/>
<path d="M8796 5277 c3 -10 9 -15 12 -12 3 3 0 11 -7 18 -10 9 -11 8 -5 -6z"/>
<path d="M8701 5222 c-13 -25 -14 -32 -2 -32 5 0 11 8 13 18 3 9 8 -8 12 -38
9 -67 25 -120 35 -120 5 0 3 25 -4 55 -7 30 -9 53 -4 49 17 -10 9 17 -15 53
-23 33 -25 34 -35 15z"/>
<path d="M8825 5200 c3 -5 8 -10 11 -10 2 0 4 5 4 10 0 6 -5 10 -11 10 -5 0
-7 -4 -4 -10z"/>
<path d="M8740 5016 c0 -8 4 -17 9 -20 5 -4 7 3 4 14 -6 23 -13 26 -13 6z"/>
<path d="M8751 4954 c0 -11 3 -14 6 -6 3 7 2 16 -1 19 -3 4 -6 -2 -5 -13z"/>
<path d="M8940 4716 c0 -19 3 -37 8 -40 4 -2 6 13 4 35 -5 48 -12 51 -12 5z"/>
<path d="M940 4575 c0 -8 4 -15 10 -15 5 0 7 7 4 15 -4 8 -8 15 -10 15 -2 0
-4 -7 -4 -15z"/>
<path d="M8912 4455 c0 -16 2 -22 5 -12 2 9 2 23 0 30 -3 6 -5 -1 -5 -18z"/>
<path d="M921 4470 c-1 -3 -5 -30 -7 -60 -4 -41 -2 -52 6 -44 6 6 10 32 7 60
-2 27 -4 47 -6 44z"/>
<path d="M8811 4454 c0 -11 3 -14 6 -6 3 7 2 16 -1 19 -3 4 -6 -2 -5 -13z"/>
<path d="M923 4295 c-3 -9 -3 -18 -1 -21 3 -3 8 4 11 16 6 23 -1 27 -10 5z"/>
<path d="M481 2424 c0 -11 3 -14 6 -6 3 7 2 16 -1 19 -3 4 -6 -2 -5 -13z"/>
<path d="M440 2325 c0 -8 5 -15 10 -15 6 0 10 7 10 15 0 8 -4 15 -10 15 -5 0
-10 -7 -10 -15z"/>
<path d="M445 2270 c3 -5 8 -10 11 -10 2 0 4 5 4 10 0 6 -5 10 -11 10 -5 0 -7
-4 -4 -10z"/>
<path d="M9045 2190 c4 -77 3 -70 15 -70 14 0 13 43 -2 58 -9 9 -9 12 0 12 7
0 12 7 12 16 0 8 -4 13 -9 9 -5 -3 -12 5 -14 17 -3 13 -4 -6 -2 -42z"/>
<path d="M451 1833 c-1 -29 3 -53 9 -53 12 0 12 44 0 80 -6 20 -8 14 -9 -27z"/>
<path d="M9191 1794 c0 -11 3 -14 6 -6 3 7 2 16 -1 19 -3 4 -6 -2 -5 -13z"/>
<path d="M9210 1311 c0 -6 4 -13 10 -16 6 -3 7 1 4 9 -7 18 -14 21 -14 7z"/>
<path d="M483 1215 c0 -22 2 -30 4 -17 2 12 2 30 0 40 -3 9 -5 -1 -4 -23z"/>
<path d="M9366 1177 c3 -10 9 -15 12 -12 3 3 0 11 -7 18 -10 9 -11 8 -5 -6z"/>
<path d="M9331 1064 c0 -11 3 -14 6 -6 3 7 2 16 -1 19 -3 4 -6 -2 -5 -13z"/>
<path d="M9320 881 c0 -6 4 -13 10 -16 6 -3 7 1 4 9 -7 18 -14 21 -14 7z"/>
<path d="M9350 848 c0 -7 4 -19 9 -27 6 -9 9 -5 9 13 0 14 -4 26 -9 26 -5 0
-9 -6 -9 -12z"/>
<path d="M9390 812 c0 -12 19 -26 26 -19 2 2 -2 10 -11 17 -9 8 -15 8 -15 2z"/>
<path d="M9530 783 c0 -5 5 -15 10 -23 8 -12 10 -11 10 8 0 12 -4 22 -10 22
-5 0 -10 -3 -10 -7z"/>
<path d="M9563 655 c0 -22 2 -30 4 -17 2 12 2 30 0 40 -3 9 -5 -1 -4 -23z"/>
<path d="M3567 565 c-4 -8 -2 -17 3 -20 6 -4 10 3 10 14 0 25 -6 27 -13 6z"/>
<path d="M9410 466 c0 -8 5 -18 10 -21 6 -3 10 1 10 9 0 8 -4 18 -10 21 -5 3
-10 -1 -10 -9z"/>
<path d="M9041 444 c0 -11 3 -14 6 -6 3 7 2 16 -1 19 -3 4 -6 -2 -5 -13z"/>
<path d="M9330 440 c0 -5 5 -10 10 -10 6 0 10 5 10 10 0 6 -4 10 -10 10 -5 0
-10 -4 -10 -10z"/>
<path d="M9342 280 c0 -14 2 -19 5 -12 2 6 2 18 0 25 -3 6 -5 1 -5 -13z"/>
<path d="M9442 190 c0 -19 2 -27 5 -17 2 9 2 25 0 35 -3 9 -5 1 -5 -18z"/>
<path d="M9471 204 c0 -11 3 -14 6 -6 3 7 2 16 -1 19 -3 4 -6 -2 -5 -13z"/>
<path d="M9456 98 c-7 -40 5 -90 19 -80 12 8 7 112 -5 112 -4 0 -10 -15 -14
-32z"/>
<path d="M6377 44 c-4 -4 -7 -17 -7 -28 1 -19 1 -20 11 -3 11 19 8 43 -4 31z"/>
</g>
</svg>
